<?xml version="1.0" encoding="UTF-8"?>
<svg width="256" height="256" viewBox="0 0 256 256" fill="none" xmlns="http://www.w3.org/2000/svg" role="img" aria-label="IADS logo mark">
  <defs>
    <!-- brand colors -->
    <linearGradient id="g" x1="32" y1="32" x2="224" y2="224" gradientUnits="userSpaceOnUse">
      <stop offset="0" stop-color="#2563EB"/>
      <stop offset="1" stop-color="#1E40AF"/>
    </linearGradient>
    <filter id="soft" x="-20%" y="-20%" width="140%" height="140%">
      <feGaussianBlur in="SourceAlpha" stdDeviation="3" result="b"/>
      <feOffset dy="2" result="o"/>
      <feComposite in="o" in2="b" operator="over" />
      <feColorMatrix type="matrix" values="0 0 0 0 0  0 0 0 0 0.18  0 0 0 0 0.45  0 0 0 0.25 0" />
      <feBlend in="SourceGraphic" />
    </filter>
  </defs>

  <!-- circular badge -->
  <circle cx="128" cy="128" r="112" fill="url(#g)"/>

  <!-- brain silhouette -->
  <path filter="url(#soft)"
        d="M89 82c14-22 47-26 66-10c17-1 31 13 31 30c0 4-1 8-3 12c7 10 7 24-1 34c1 17-12 32-29 34c-12 14-33 16-48 6c-19 3-36-11-36-30c0-5 1-10 3-14c-10-11-9-28 2-38c1-9 6-18 15-24z"
        fill="#FFFFFF" opacity="0.95"/>

  <!-- network nodes + links -->
  <g stroke="#2563EB" stroke-width="6" stroke-linecap="round">
    <line x1="128" y1="118" x2="168" y2="98"/>
    <line x1="128" y1="118" x2="118" y2="154"/>
    <line x1="128" y1="118" x2="98"  y2="108"/>
  </g>
  <g fill="#1E40AF" stroke="#FFFFFF" stroke-width="4">
    <circle cx="128" cy="118" r="10"/>
    <circle cx="168" cy="98"  r="8"/>
    <circle cx="118" cy="154" r="8"/>
    <circle cx="98"  cy="108" r="8"/>
  </g>
</svg>
